<svg width="130" height="64" viewBox="0 0 130 64" fill="none" xmlns="http://www.w3.org/2000/svg">
<path d="M17.622 44.408C16.0807 44.408 14.6867 44.068 13.44 43.388C12.1933 42.6853 11.2073 41.688 10.482 40.396C9.75667 39.0813 9.394 37.506 9.394 35.67C9.394 33.8567 9.75667 32.2927 10.482 30.978C11.23 29.6633 12.1933 28.6547 13.372 27.952C14.5507 27.2493 15.786 26.898 17.078 26.898C18.5967 26.898 19.866 27.238 20.886 27.918C21.906 28.5753 22.6767 29.5047 23.198 30.706C23.7193 31.8847 23.98 33.256 23.98 34.82C23.98 35.636 23.9233 36.2707 23.81 36.724H13.202C13.3833 38.1973 13.916 39.342 14.8 40.158C15.684 40.974 16.7947 41.382 18.132 41.382C18.8573 41.382 19.526 41.28 20.138 41.076C20.7727 40.8493 21.396 40.5433 22.008 40.158L23.334 42.606C22.5407 43.1273 21.6567 43.558 20.682 43.898C19.7073 44.238 18.6873 44.408 17.622 44.408ZM13.168 34.072H20.58C20.58 32.78 20.2967 31.7713 19.73 31.046C19.1633 30.298 18.3133 29.924 17.18 29.924C16.2053 29.924 15.3327 30.2867 14.562 31.012C13.814 31.7147 13.3493 32.7347 13.168 34.072ZM31.362 44.408C29.9113 44.408 28.7213 43.9547 27.792 43.048C26.8853 42.1413 26.432 40.9627 26.432 39.512C26.432 37.7213 27.214 36.3387 28.778 35.364C30.342 34.3667 32.8353 33.6867 36.258 33.324C36.2353 32.44 35.9973 31.6807 35.544 31.046C35.1133 30.3887 34.3313 30.06 33.198 30.06C32.382 30.06 31.5773 30.2187 30.784 30.536C30.0133 30.8533 29.254 31.2387 28.506 31.692L27.078 29.074C28.0073 28.4847 29.05 27.9747 30.206 27.544C31.3847 27.1133 32.6313 26.898 33.946 26.898C36.0313 26.898 37.584 27.5213 38.604 28.768C39.6467 29.992 40.168 31.7713 40.168 34.106V44H36.938L36.666 42.164H36.53C35.782 42.7987 34.9773 43.3313 34.116 43.762C33.2773 44.1927 32.3593 44.408 31.362 44.408ZM32.62 41.348C33.3 41.348 33.912 41.1893 34.456 40.872C35.0227 40.532 35.6233 40.0787 36.258 39.512V35.772C33.9913 36.0667 32.416 36.5087 31.532 37.098C30.648 37.6647 30.206 38.3673 30.206 39.206C30.206 39.954 30.4327 40.498 30.886 40.838C31.3393 41.178 31.9173 41.348 32.62 41.348ZM51.8172 44.408C50.2986 44.408 48.9272 44.068 47.7032 43.388C46.5019 42.6853 45.5386 41.688 44.8132 40.396C44.1106 39.0813 43.7592 37.506 43.7592 35.67C43.7592 33.8113 44.1446 32.236 44.9152 30.944C45.6859 29.6293 46.7059 28.632 47.9752 27.952C49.2672 27.2493 50.6499 26.898 52.1232 26.898C53.1886 26.898 54.1179 27.0793 54.9112 27.442C55.7046 27.8047 56.4072 28.2467 57.0192 28.768L55.1152 31.318C54.6846 30.9327 54.2426 30.638 53.7892 30.434C53.3359 30.2073 52.8486 30.094 52.3272 30.094C50.9899 30.094 49.8906 30.604 49.0292 31.624C48.1906 32.644 47.7712 33.9927 47.7712 35.67C47.7712 37.3247 48.1792 38.662 48.9952 39.682C49.8339 40.702 50.9106 41.212 52.2252 41.212C52.8826 41.212 53.4946 41.076 54.0612 40.804C54.6506 40.5093 55.1832 40.1693 55.6592 39.784L57.2572 42.368C56.4866 43.048 55.6252 43.558 54.6732 43.898C53.7212 44.238 52.7692 44.408 51.8172 44.408ZM62.7623 44.408C62.0596 44.408 61.459 44.1587 60.9603 43.66C60.4616 43.1613 60.2123 42.5267 60.2123 41.756C60.2123 40.9853 60.4616 40.3507 60.9603 39.852C61.459 39.3533 62.0596 39.104 62.7623 39.104C63.4876 39.104 64.0883 39.3533 64.5643 39.852C65.0403 40.3507 65.2783 40.9853 65.2783 41.756C65.2783 42.5267 65.0403 43.1613 64.5643 43.66C64.0883 44.1587 63.4876 44.408 62.7623 44.408ZM76.3844 44.408C75.0017 44.408 73.7097 44.068 72.5084 43.388C71.307 42.6853 70.3324 41.688 69.5844 40.396C68.8364 39.0813 68.4624 37.506 68.4624 35.67C68.4624 33.8113 68.8364 32.236 69.5844 30.944C70.3324 29.6293 71.307 28.632 72.5084 27.952C73.7097 27.2493 75.0017 26.898 76.3844 26.898C77.7897 26.898 79.093 27.2493 80.2944 27.952C81.4957 28.632 82.4704 29.6293 83.2184 30.944C83.9664 32.236 84.3404 33.8113 84.3404 35.67C84.3404 37.506 83.9664 39.0813 83.2184 40.396C82.4704 41.688 81.4957 42.6853 80.2944 43.388C79.093 44.068 77.7897 44.408 76.3844 44.408ZM76.3844 41.212C77.6084 41.212 78.5717 40.702 79.2744 39.682C79.977 38.662 80.3284 37.3247 80.3284 35.67C80.3284 33.9927 79.977 32.644 79.2744 31.624C78.5717 30.604 77.6084 30.094 76.3844 30.094C75.1604 30.094 74.197 30.604 73.4944 31.624C72.8144 32.644 72.4744 33.9927 72.4744 35.67C72.4744 37.3247 72.8144 38.662 73.4944 39.682C74.197 40.702 75.1604 41.212 76.3844 41.212ZM88.2105 44V27.306H91.4405L91.7125 29.55H91.8485C92.5965 28.8247 93.4125 28.2013 94.2965 27.68C95.1805 27.1587 96.1892 26.898 97.3225 26.898C99.1132 26.898 100.417 27.476 101.233 28.632C102.049 29.788 102.457 31.42 102.457 33.528V44H98.5465V34.038C98.5465 32.6553 98.3425 31.6807 97.9345 31.114C97.5265 30.5473 96.8578 30.264 95.9285 30.264C95.2032 30.264 94.5572 30.4453 93.9905 30.808C93.4465 31.148 92.8232 31.658 92.1205 32.338V44H88.2105ZM114.376 44.408C112.835 44.408 111.441 44.068 110.194 43.388C108.947 42.6853 107.961 41.688 107.236 40.396C106.511 39.0813 106.148 37.506 106.148 35.67C106.148 33.8567 106.511 32.2927 107.236 30.978C107.984 29.6633 108.947 28.6547 110.126 27.952C111.305 27.2493 112.54 26.898 113.832 26.898C115.351 26.898 116.62 27.238 117.64 27.918C118.66 28.5753 119.431 29.5047 119.952 30.706C120.473 31.8847 120.734 33.256 120.734 34.82C120.734 35.636 120.677 36.2707 120.564 36.724H109.956C110.137 38.1973 110.67 39.342 111.554 40.158C112.438 40.974 113.549 41.382 114.886 41.382C115.611 41.382 116.28 41.28 116.892 41.076C117.527 40.8493 118.15 40.5433 118.762 40.158L120.088 42.606C119.295 43.1273 118.411 43.558 117.436 43.898C116.461 44.238 115.441 44.408 114.376 44.408ZM109.922 34.072H117.334C117.334 32.78 117.051 31.7713 116.484 31.046C115.917 30.298 115.067 29.924 113.934 29.924C112.959 29.924 112.087 30.2867 111.316 31.012C110.568 31.7147 110.103 32.7347 109.922 34.072Z" fill="black"/>
</svg>
