<?xml version="1.0" encoding="UTF-8"?>
<svg xmlns="http://www.w3.org/2000/svg" xmlns:xlink="http://www.w3.org/1999/xlink" width="20px" height="20px" viewBox="0 0 20 20" version="1.1">
<g id="surface1">
<path style=" stroke:none;fill-rule:nonzero;fill:#FFFFFF;fill-opacity:1;"
      d="M 19.96875 14.714844 C 19.203125 11.457031 16.824219 6.921875 9.632812 5.964844 L 9.632812 3.09375 C 9.632812 2.492188 9.269531 1.953125 8.714844 1.726562 C 8.164062 1.496094 7.527344 1.625 7.105469 2.050781 L 0.574219 8.613281 C -0.191406 9.378906 -0.191406 10.621094 0.570312 11.386719 L 7.105469 17.949219 C 7.527344 18.375 8.164062 18.503906 8.71875 18.273438 C 9.269531 18.046875 9.632812 17.507812 9.632812 16.90625 L 9.632812 14.128906 C 12.085938 14.132812 15.625 14.457031 18.140625 16.023438 C 18.558594 16.28125 19.09375 16.265625 19.492188 15.976562 C 19.890625 15.691406 20.082031 15.191406 19.96875 14.714844 Z M 19.96875 14.714844 "/>
</g>
</svg>
