<svg width="25pt" height="20pt" version="1.1" viewBox="0 0 700 700" xmlns="http://www.w3.org/2000/svg" xmlns:xlink="http://www.w3.org/1999/xlink">
 <defs>
  <symbol id="v" overflow="visible">
   <path d="m1.8281-0.10938c-0.09375 0.054688-0.19531 0.089844-0.29688 0.10938-0.09375 0.019531-0.19922 0.03125-0.3125 0.03125-0.33594 0-0.60156-0.085938-0.79688-0.26562-0.1875-0.1875-0.28125-0.44141-0.28125-0.76562 0-0.3125 0.09375-0.5625 0.28125-0.75 0.19531-0.1875 0.46094-0.28125 0.79688-0.28125 0.11328 0 0.21875 0.015625 0.3125 0.046875 0.10156 0.023437 0.20312 0.058594 0.29688 0.10938v0.40625c-0.09375-0.0625-0.1875-0.10938-0.28125-0.14062s-0.19531-0.046875-0.29688-0.046875c-0.17969 0-0.32031 0.0625-0.42188 0.1875-0.10547 0.11719-0.15625 0.27344-0.15625 0.46875 0 0.21094 0.050781 0.375 0.15625 0.5 0.10156 0.11719 0.24219 0.17188 0.42188 0.17188 0.10156 0 0.20312-0.015625 0.29688-0.046875s0.1875-0.078125 0.28125-0.14062z"/>
  </symbol>
  <symbol id="f" overflow="visible">
   <path d="m1.3438-1.0938c-0.042969-0.019531-0.085938-0.03125-0.125-0.03125-0.042969-0.007812-0.085938-0.015625-0.125-0.015625-0.125 0-0.22656 0.042969-0.29688 0.125-0.0625 0.074219-0.09375 0.18359-0.09375 0.32812v0.6875h-0.46875v-1.5h0.46875v0.25c0.0625-0.09375 0.12891-0.16016 0.20312-0.20312 0.082031-0.050781 0.17969-0.078125 0.29688-0.078125h0.046875c0.019531 0 0.050781 0.007812 0.09375 0.015625z"/>
  </symbol>
  <symbol id="a" overflow="visible">
   <path d="m1.7188-0.75v0.14062h-1.1094c0.007813 0.10547 0.046875 0.1875 0.10938 0.25 0.070312 0.054687 0.17188 0.078125 0.29688 0.078125 0.10156 0 0.20703-0.015625 0.3125-0.046875 0.10156-0.03125 0.21094-0.070313 0.32812-0.125v0.35938c-0.11719 0.042969-0.23047 0.074219-0.34375 0.09375-0.11719 0.019531-0.23047 0.03125-0.34375 0.03125-0.27344 0-0.48047-0.066406-0.625-0.20312-0.14844-0.13281-0.21875-0.32812-0.21875-0.57812 0-0.23828 0.070312-0.42578 0.21875-0.5625 0.14453-0.14453 0.34766-0.21875 0.60938-0.21875 0.22656 0 0.41016 0.074219 0.54688 0.21875 0.14453 0.13672 0.21875 0.32422 0.21875 0.5625zm-0.48438-0.15625c0-0.09375-0.027344-0.16406-0.078125-0.21875-0.054688-0.0625-0.125-0.09375-0.21875-0.09375-0.085938 0-0.15625 0.027344-0.21875 0.078125-0.0625 0.054687-0.10156 0.13281-0.10938 0.23438z"/>
  </symbol>
  <symbol id="e" overflow="visible">
   <path d="m0.90625-0.67188c-0.10547 0-0.18359 0.015625-0.23438 0.046875-0.054687 0.03125-0.078125 0.085938-0.078125 0.15625 0 0.0625 0.019531 0.10938 0.0625 0.14062 0.039062 0.03125 0.097656 0.046875 0.17188 0.046875 0.09375 0 0.16406-0.03125 0.21875-0.09375 0.0625-0.0625 0.09375-0.14453 0.09375-0.25v-0.046875zm0.71875-0.1875v0.85938h-0.48438v-0.21875c-0.0625 0.09375-0.13672 0.16406-0.21875 0.20312-0.074219 0.03125-0.16797 0.046875-0.28125 0.046875-0.15625 0-0.28125-0.039062-0.375-0.125-0.09375-0.09375-0.14062-0.21094-0.14062-0.35938 0-0.17578 0.054688-0.30078 0.17188-0.375 0.125-0.082031 0.3125-0.125 0.5625-0.125h0.28125v-0.046875c0-0.070312-0.03125-0.125-0.09375-0.15625-0.054687-0.039062-0.14062-0.0625-0.26562-0.0625-0.10547 0-0.20312 0.011719-0.29688 0.03125-0.085937 0.023438-0.16406 0.054688-0.23438 0.09375v-0.35938c0.10156-0.03125 0.20703-0.050781 0.3125-0.0625 0.10156-0.007813 0.20312-0.015625 0.29688-0.015625 0.26953 0 0.46094 0.054688 0.57812 0.15625 0.125 0.10547 0.1875 0.27734 0.1875 0.51562z"/>
  </symbol>
  <symbol id="d" overflow="visible">
   <path d="m0.75-1.9219v0.42188h0.5v0.34375h-0.5v0.64062c0 0.0625 0.007812 0.10938 0.03125 0.14062 0.03125 0.023438 0.085938 0.03125 0.17188 0.03125h0.25v0.34375h-0.40625c-0.1875 0-0.32422-0.035156-0.40625-0.10938-0.074219-0.082031-0.10938-0.21875-0.10938-0.40625v-0.64062h-0.25v-0.34375h0.25v-0.42188z"/>
  </symbol>
  <symbol id="k" overflow="visible">
   <path d="m1.25-1.2812v-0.79688h0.48438v2.0781h-0.48438v-0.21875c-0.074219 0.09375-0.15234 0.16406-0.23438 0.20312-0.074219 0.03125-0.16406 0.046875-0.26562 0.046875-0.17969 0-0.32812-0.070312-0.45312-0.21875-0.11719-0.14453-0.17188-0.33203-0.17188-0.5625 0-0.22656 0.054688-0.41406 0.17188-0.5625 0.125-0.14453 0.27344-0.21875 0.45312-0.21875 0.10156 0 0.19141 0.023438 0.26562 0.0625 0.082031 0.042969 0.16016 0.10547 0.23438 0.1875zm-0.3125 0.96875c0.09375 0 0.16406-0.035156 0.21875-0.10938 0.0625-0.070313 0.09375-0.17969 0.09375-0.32812 0-0.13281-0.03125-0.23828-0.09375-0.3125-0.054688-0.082031-0.125-0.125-0.21875-0.125-0.10547 0-0.18359 0.042969-0.23438 0.125-0.054687 0.074219-0.078125 0.17969-0.078125 0.3125 0 0.14844 0.023438 0.25781 0.078125 0.32812 0.050781 0.074219 0.12891 0.10938 0.23438 0.10938z"/>
  </symbol>
  <symbol id="j" overflow="visible">
   <path d="m1.0312-0.3125c0.09375 0 0.16406-0.035156 0.21875-0.10938 0.0625-0.070313 0.09375-0.17969 0.09375-0.32812 0-0.13281-0.03125-0.23828-0.09375-0.3125-0.054688-0.082031-0.125-0.125-0.21875-0.125-0.10547 0-0.1875 0.042969-0.25 0.125-0.054688 0.074219-0.078125 0.17969-0.078125 0.3125 0 0.14844 0.023437 0.25781 0.078125 0.32812 0.0625 0.074219 0.14453 0.10938 0.25 0.10938zm-0.32812-0.96875c0.070313-0.082031 0.14453-0.14453 0.21875-0.1875 0.082031-0.039062 0.17578-0.0625 0.28125-0.0625 0.1875 0 0.33594 0.074219 0.45312 0.21875 0.11328 0.14844 0.17188 0.33594 0.17188 0.5625 0 0.23047-0.058594 0.41797-0.17188 0.5625-0.11719 0.14844-0.26562 0.21875-0.45312 0.21875-0.10547 0-0.19922-0.015625-0.28125-0.046875-0.074219-0.039062-0.14844-0.10938-0.21875-0.20312v0.21875h-0.46875v-2.0781h0.46875z"/>
  </symbol>
  <symbol  id="i" overflow="visible">
   <path d="m0.03125-1.5h0.48438l0.39062 1.0156 0.34375-1.0156h0.48438l-0.625 1.6406c-0.0625 0.16406-0.14062 0.28125-0.23438 0.34375-0.085938 0.070313-0.19531 0.10938-0.32812 0.10938h-0.26562v-0.3125h0.14062c0.082031 0 0.14062-0.015625 0.17188-0.046875 0.039062-0.023437 0.070312-0.070313 0.09375-0.14062l0.015625-0.03125z"/>
  </symbol>
  <symbol id="c" overflow="visible">
   <path d="m1.3906-1.4531v0.375c-0.09375-0.050781-0.19531-0.085937-0.29688-0.10938-0.09375-0.019531-0.18359-0.03125-0.26562-0.03125-0.085937 0-0.15234 0.015625-0.20312 0.046875-0.042969 0.023437-0.0625 0.054687-0.0625 0.09375 0 0.042969 0.015625 0.074219 0.046875 0.09375 0.03125 0.023437 0.09375 0.039063 0.1875 0.046875l0.078125 0.015625c0.25 0.03125 0.41406 0.085937 0.5 0.15625 0.082031 0.0625 0.125 0.17188 0.125 0.32812s-0.0625 0.27734-0.1875 0.35938c-0.11719 0.074219-0.28906 0.10938-0.51562 0.10938-0.10547 0-0.21094-0.011719-0.3125-0.03125-0.10547-0.0078125-0.21094-0.03125-0.3125-0.0625v-0.35938c0.09375 0.054687 0.1875 0.089844 0.28125 0.10938 0.10156 0.023438 0.20703 0.03125 0.3125 0.03125 0.09375 0 0.16016-0.007812 0.20312-0.03125 0.050781-0.03125 0.078125-0.070312 0.078125-0.125 0-0.039062-0.015625-0.070312-0.046875-0.09375-0.03125-0.019531-0.10156-0.035156-0.20312-0.046875l-0.078125-0.015625c-0.21875-0.019531-0.37109-0.066406-0.45312-0.14062-0.085937-0.070313-0.125-0.17969-0.125-0.32812 0-0.15625 0.050781-0.26953 0.15625-0.34375 0.11328-0.082031 0.28125-0.125 0.5-0.125 0.09375 0 0.1875 0.011719 0.28125 0.03125 0.10156 0.011719 0.20703 0.027344 0.3125 0.046875z"/>
  </symbol>
  <symbol id="b" overflow="visible">
   <path d="m1.7344-0.90625v0.90625h-0.48438v-0.6875c0-0.13281-0.007812-0.22266-0.015625-0.26562 0-0.050781-0.007813-0.09375-0.015625-0.125-0.023438-0.03125-0.046875-0.050781-0.078125-0.0625-0.03125-0.019531-0.070313-0.03125-0.10938-0.03125-0.10547 0-0.1875 0.042969-0.25 0.125-0.054688 0.074219-0.078125 0.17969-0.078125 0.3125v0.73438h-0.46875v-2.0781h0.46875v0.79688c0.070313-0.082031 0.14844-0.14453 0.23438-0.1875 0.082031-0.039062 0.17188-0.0625 0.26562-0.0625 0.17578 0 0.30469 0.054688 0.39062 0.15625 0.09375 0.10547 0.14062 0.26172 0.14062 0.46875z"/>
  </symbol>
  <symbol id="h" overflow="visible">
   <path d="m1.7344-0.90625v0.90625h-0.48438v-0.70312c0-0.125-0.007812-0.20703-0.015625-0.25 0-0.050781-0.007813-0.09375-0.015625-0.125-0.023438-0.03125-0.046875-0.050781-0.078125-0.0625-0.03125-0.019531-0.070313-0.03125-0.10938-0.03125-0.10547 0-0.1875 0.042969-0.25 0.125-0.054688 0.074219-0.078125 0.17969-0.078125 0.3125v0.73438h-0.46875v-1.5h0.46875v0.21875c0.070313-0.082031 0.14844-0.14453 0.23438-0.1875 0.082031-0.039062 0.17188-0.0625 0.26562-0.0625 0.17578 0 0.30469 0.054688 0.39062 0.15625 0.09375 0.10547 0.14062 0.26172 0.14062 0.46875z"/>
  </symbol>
  <symbol id="u" overflow="visible">
   <path d="m0.23438-2.0781h0.46875v1.125l0.54688-0.54688h0.5625l-0.73438 0.6875 0.79688 0.8125h-0.57812l-0.59375-0.625v0.625h-0.46875z"/>
  </symbol>
  <symbol id="t" overflow="visible">
   <path d="m0.23438-1.5h0.46875v1.5h-0.46875zm0-0.57812h0.46875v0.39062h-0.46875z"/>
  </symbol>
  <symbol id="s" overflow="visible">
   <path d="m1.25-0.25c-0.074219 0.085938-0.15234 0.14844-0.23438 0.1875-0.074219 0.042969-0.16406 0.0625-0.26562 0.0625-0.17969 0-0.32812-0.070312-0.45312-0.21875-0.11719-0.14453-0.17188-0.32812-0.17188-0.54688s0.054688-0.39844 0.17188-0.54688c0.125-0.14453 0.27344-0.21875 0.45312-0.21875 0.10156 0 0.19141 0.023438 0.26562 0.0625 0.082031 0.042969 0.16016 0.10547 0.23438 0.1875v-0.21875h0.48438v1.3438c0 0.23828-0.078125 0.42188-0.23438 0.54688-0.15625 0.13281-0.375 0.20312-0.65625 0.20312-0.09375 0-0.1875-0.011719-0.28125-0.03125-0.085938-0.011719-0.16797-0.03125-0.25-0.0625v-0.375c0.082031 0.050781 0.16016 0.085938 0.23438 0.10938 0.082031 0.03125 0.16406 0.046875 0.25 0.046875 0.15625 0 0.26953-0.039062 0.34375-0.10938 0.070313-0.074219 0.10938-0.17969 0.10938-0.32812zm-0.3125-0.9375c-0.10547 0-0.18359 0.039062-0.23438 0.10938-0.054687 0.074219-0.078125 0.17969-0.078125 0.3125 0 0.13672 0.023438 0.24219 0.078125 0.3125 0.050781 0.074219 0.12891 0.10938 0.23438 0.10938 0.09375 0 0.16406-0.035156 0.21875-0.10938 0.0625-0.070313 0.09375-0.17578 0.09375-0.3125 0-0.13281-0.03125-0.23828-0.09375-0.3125-0.054688-0.070313-0.125-0.10938-0.21875-0.10938z"/>
  </symbol>
  <symbol id="r" overflow="visible">
   <path d="m1.2188-2.0781v0.3125h-0.26562c-0.074219 0-0.125 0.015625-0.15625 0.046875-0.023437 0.023438-0.03125 0.0625-0.03125 0.125v0.09375h0.40625v0.34375h-0.40625v1.1562h-0.46875v-1.1562h-0.25v-0.34375h0.25v-0.09375c0-0.16406 0.039063-0.28516 0.125-0.35938 0.09375-0.082031 0.23438-0.125 0.42188-0.125z"/>
  </symbol>
  <symbol id="g" overflow="visible">
   <path d="m0.9375-1.1875c-0.10547 0-0.1875 0.039062-0.25 0.10938-0.054688 0.074219-0.078125 0.18359-0.078125 0.32812 0 0.14844 0.023437 0.26172 0.078125 0.34375 0.0625 0.074219 0.14453 0.10938 0.25 0.10938 0.10156 0 0.17969-0.035156 0.23438-0.10938 0.0625-0.082031 0.09375-0.19531 0.09375-0.34375 0-0.14453-0.03125-0.25391-0.09375-0.32812-0.054687-0.070313-0.13281-0.10938-0.23438-0.10938zm0-0.34375c0.25781 0 0.46094 0.074219 0.60938 0.21875 0.14453 0.13672 0.21875 0.32422 0.21875 0.5625 0 0.25-0.074219 0.44531-0.21875 0.57812-0.14844 0.13672-0.35156 0.20312-0.60938 0.20312-0.26172 0-0.46484-0.066406-0.60938-0.20312-0.13672-0.13281-0.20312-0.32812-0.20312-0.57812 0-0.23828 0.066406-0.42578 0.20312-0.5625 0.14453-0.14453 0.34766-0.21875 0.60938-0.21875z"/>
  </symbol>
  <symbol id="q" overflow="visible">
   <path d="m1.6094-1.25c0.0625-0.09375 0.13281-0.16016 0.21875-0.20312 0.082031-0.050781 0.17578-0.078125 0.28125-0.078125 0.16406 0 0.29688 0.054688 0.39062 0.15625 0.09375 0.10547 0.14062 0.26172 0.14062 0.46875v0.90625h-0.48438v-0.78125-0.03125-0.0625c0-0.10156-0.015625-0.17578-0.046875-0.21875-0.03125-0.050781-0.085937-0.078125-0.15625-0.078125-0.085937 0-0.15234 0.039063-0.20312 0.10938-0.054688 0.074219-0.078125 0.18359-0.078125 0.32812v0.73438h-0.48438v-0.78125c0-0.16406-0.015625-0.26953-0.046875-0.3125-0.023437-0.050781-0.070313-0.078125-0.14062-0.078125-0.09375 0-0.16797 0.042969-0.21875 0.125-0.054688 0.074219-0.078125 0.17969-0.078125 0.3125v0.73438h-0.46875v-1.5h0.46875v0.21875c0.0625-0.082031 0.12891-0.14453 0.20312-0.1875 0.082031-0.039062 0.16406-0.0625 0.25-0.0625 0.10156 0 0.19141 0.027344 0.26562 0.078125 0.082031 0.054687 0.14453 0.12109 0.1875 0.20312z"/>
  </symbol>
  <symbol id="p" overflow="visible">
   <path d="m0.25-2h0.57812l0.71875 1.375v-1.375h0.48438v2h-0.5625l-0.73438-1.375v1.375h-0.48438z"/>
  </symbol>
  <symbol id="o" overflow="visible">
   <path d="m0.21875-0.57812v-0.92188h0.46875v0.15625 0.3125 0.23438 0.26562c0.007812 0.054688 0.023438 0.089844 0.046875 0.10938 0.019531 0.03125 0.046875 0.058594 0.078125 0.078125 0.03125 0.011719 0.066406 0.015625 0.10938 0.015625 0.09375 0 0.16406-0.035156 0.21875-0.10938 0.0625-0.070312 0.09375-0.17578 0.09375-0.3125v-0.75h0.48438v1.5h-0.48438v-0.21875c-0.074219 0.09375-0.15234 0.16406-0.23438 0.20312-0.074219 0.03125-0.15625 0.046875-0.25 0.046875-0.17969 0-0.3125-0.050781-0.40625-0.15625-0.085938-0.10156-0.125-0.25391-0.125-0.45312z"/>
  </symbol>
  <symbol id="n" overflow="visible">
   <path d="m0.25-2h0.85938c0.25 0 0.44141 0.058594 0.57812 0.17188 0.13281 0.11719 0.20312 0.27734 0.20312 0.48438 0 0.21094-0.070313 0.37109-0.20312 0.48438-0.13672 0.11719-0.32812 0.17188-0.57812 0.17188h-0.34375v0.6875h-0.51562zm0.51562 0.375v0.5625h0.28125c0.10156 0 0.17969-0.019531 0.23438-0.0625 0.050781-0.050781 0.078125-0.125 0.078125-0.21875s-0.027344-0.16016-0.078125-0.20312c-0.054688-0.050781-0.13281-0.078125-0.23438-0.078125z"/>
  </symbol>
  <symbol id="m" overflow="visible">
   <path d="m0.23438-1.5h0.46875v1.4688c0 0.20703-0.046875 0.36328-0.14062 0.46875-0.09375 0.10156-0.23438 0.15625-0.42188 0.15625h-0.23438v-0.3125h0.078125c0.09375 0 0.15625-0.023438 0.1875-0.0625 0.039063-0.042969 0.0625-0.125 0.0625-0.25zm0-0.57812h0.46875v0.39062h-0.46875z"/>
  </symbol>
  <symbol id="l" overflow="visible">
   <path d="m1.4375-1.4531v0.39062c-0.0625-0.039062-0.13281-0.070312-0.20312-0.09375-0.0625-0.019531-0.13281-0.03125-0.20312-0.03125-0.125 0-0.23047 0.042969-0.3125 0.125-0.074219 0.074219-0.10938 0.17969-0.10938 0.3125 0 0.14844 0.035156 0.26172 0.10938 0.34375 0.082031 0.074219 0.1875 0.10938 0.3125 0.10938 0.082031 0 0.15625-0.007813 0.21875-0.03125 0.070312-0.03125 0.13281-0.066406 0.1875-0.10938v0.39062c-0.074219 0.03125-0.15234 0.050781-0.23438 0.0625-0.074219 0.0078125-0.14844 0.015625-0.21875 0.015625-0.27344 0-0.48438-0.066406-0.64062-0.20312-0.14844-0.13281-0.21875-0.32812-0.21875-0.57812 0-0.23828 0.070312-0.42578 0.21875-0.5625 0.15625-0.14453 0.36719-0.21875 0.64062-0.21875 0.070313 0 0.14453 0.011719 0.21875 0.03125 0.082031 0.011719 0.16016 0.027344 0.23438 0.046875z"/>
  </symbol>
 </defs>
 <g>
  <path fill="#00382B" d="m412.51 201.36c0 34.727-28.109 82.195-62.836 82.195s-62.836-47.469-62.836-82.195 28.109-62.836 62.836-62.836 62.836 28.164 62.836 62.836z"/>
  <path fill="#00382B" d="m402.94 201.36c0 2.8984 0.16406 6.3984-0.60156 9.2422 0.49219-1.8047 0.10937-0.65625-0.10938 0.49219-0.10937 0.71094-0.21875 1.3672-0.38281 2.0781-0.32812 1.75-0.71094 3.4453-1.1484 5.1953-0.82031 3.2812-1.8047 6.5078-2.9531 9.6797-0.54688 1.4766-1.1484 2.9531-1.6953 4.4844-0.38281 1.0391 0.21875-0.49219 0.27344-0.60156-0.21875 0.4375-0.38281 0.92969-0.60156 1.3672-0.32812 0.76562-0.71094 1.5859-1.0938 2.3516-3.0078 6.2344-6.6172 12.086-10.664 17.664-0.65625 0.875 0.32812-0.4375 0.38281-0.49219-0.32812 0.38281-0.60156 0.76563-0.92969 1.1484-0.4375 0.54688-0.92969 1.0938-1.3672 1.6406-1.1484 1.3672-2.3516 2.6797-3.6094 3.9375-2.1875 2.2422-4.5391 4.2656-6.9453 6.2891 1.8594-1.5859 0 0-0.49219 0.32812-0.65625 0.4375-1.2578 0.875-1.9141 1.3125-1.3125 0.82031-2.625 1.6406-3.9922 2.3516-0.65625 0.38281-1.3672 0.71094-2.0234 1.0391-0.27344 0.16406-0.60156 0.27344-0.875 0.4375-1.5859 0.76562 0.4375-0.10938 0.49219-0.16406-0.875 0.82031-3.0625 1.1484-4.2109 1.4766-1.4219 0.4375-2.8438 0.76562-4.3203 1.0391-0.32812 0.054688-0.65625 0.054688-0.92969 0.16406-1.0391 0.27344 0.92969-0.21875 0.98438-0.10937-0.054688-0.10938-2.1875 0.21875-2.5156 0.21875-1.3672 0.054687-2.7891 0.054687-4.1562 0-0.10937 0-2.1875-0.27344-2.2422-0.21875 0-0.054688 2.0234 0.32812 0.98438 0.10937-0.49219-0.10937-1.0391-0.16406-1.5859-0.27344-1.3672-0.27344-2.6797-0.60156-3.9922-1.0391-0.71094-0.21875-1.4219-0.4375-2.1328-0.71094-0.32812-0.10938-0.60156-0.21875-0.875-0.32812-1.3672-0.49219-0.65625 0.27344 0.21875 0.10938-0.82031 0.16406-3.1172-1.4766-3.7734-1.8594-1.3672-0.76562-2.6797-1.5312-3.9375-2.4062-0.65625-0.4375-1.3125-0.875-1.9141-1.3125-0.27344-0.21875-0.54687-0.4375-0.82031-0.60156-1.0938-0.76563 1.3125 1.0938 0.32812 0.27344-1.2031-1.0391-2.4609-2.0781-3.6641-3.1719-2.4062-2.2422-4.7031-4.6484-6.8359-7.1641-0.54688-0.65625-1.0938-1.3125-1.5859-1.9688-1.1484-1.4219 0.82031 1.0938-0.27344-0.38281s-2.1328-2.9531-3.1719-4.4844c-1.9141-2.8984-3.6641-5.8516-5.3047-8.9141-0.76563-1.4219-1.4766-2.8438-2.1328-4.3203-0.38281-0.76562-0.71094-1.5859-1.0938-2.3516-0.16406-0.32812-0.27344-0.65625-0.4375-1.0391 0.32812 0.65625 0.54688 1.2578 0.10938 0.21875-1.2578-3.1719-2.4062-6.3984-3.3906-9.6797-0.92969-3.1719-1.75-6.3984-2.3516-9.6797-0.16406-0.82031-0.27344-1.5859-0.4375-2.4062-0.054687-0.27344-0.21875-0.71094-0.16406-1.0391 0 0 0.21875 1.9688 0.10938 0.875-0.16406-1.6953-0.38281-3.3359-0.4375-4.9766-0.21875-3.3359-0.16406-6.6719 0.16406-10.008 0.10937-0.92969 0.27344-2.1328 0-0.4375 0.16406-0.875 0.27344-1.6953 0.4375-2.5703 0.32812-1.6953 0.71094-3.3906 1.1484-5.0312s0.98438-3.2812 1.5859-4.8672c0.27344-0.82031 0.60156-1.5859 0.92969-2.3516-0.71094 1.8047 0 0.054687 0.38281-0.71094 1.4219-3.0078 3.1172-5.9609 5.0312-8.6953 0.49219-0.71094 0.98438-1.3672 1.4766-2.0234-0.92969 1.3125-0.32812 0.38281 0.27344-0.32813 1.1484-1.3672 2.3516-2.7344 3.6094-3.9922 1.0938-1.0938 2.1875-2.1875 3.3906-3.2266 0.60156-0.54687 1.2578-1.0938 1.9141-1.6406 0.27344-0.21875 0.54688-0.4375 0.82031-0.65625-0.92969 0.76562-0.82031 0.60156 0.054687 0 2.625-1.8594 5.3594-3.6094 8.2578-5.0859 0.76562-0.38281 1.5312-0.71094 2.2969-1.0938 0.32813-0.16406 0.65625-0.27344 0.98438-0.4375-1.8594 0.92969-0.71094 0.27344-0.27344 0.10938 1.5859-0.60156 3.1719-1.2031 4.8125-1.6953 1.6406-0.49219 3.2812-0.92969 4.9766-1.3125 0.71094-0.16406 1.4766-0.32812 2.1875-0.4375 0.875-0.16406 3.2812-0.4375 1.1484-0.21875 3.5547-0.32812 7.0547-0.54687 10.664-0.38281 0.76563 0.054688 1.5312 0.10938 2.2969 0.16406 0.32812 0 3.0625 0.32813 1.75 0.16406-1.2578-0.16406 0 0 0.21875 0.054687 0.49219 0.10938 0.98437 0.16406 1.4766 0.27344 0.98438 0.16406 1.9688 0.38281 2.8984 0.60156 3.3359 0.76563 6.5625 1.8594 9.7344 3.1172-1.5312-0.60156-0.4375-0.16406 0.38281 0.21875 0.76562 0.38281 1.5312 0.71094 2.2422 1.0938 1.4766 0.76562 2.9531 1.5859 4.375 2.5156 1.4219 0.875 2.7344 1.9141 4.1562 2.8438 0.875 0.60156-0.4375-0.38281-0.49219-0.4375 0.27344 0.21875 0.54688 0.4375 0.82031 0.65625 0.71094 0.60156 1.4766 1.2031 2.1875 1.8594 2.5156 2.2422 4.7578 4.6484 6.8906 7.2188 0.21875 0.27344 0.4375 0.54688 0.65625 0.82031-0.16406-0.21875-1.2031-1.6406-0.21875-0.21875 0.4375 0.60156 0.82031 1.1484 1.2578 1.75 1.0391 1.4766 1.9688 3.0078 2.8438 4.5938 0.76562 1.3672 1.4766 2.7344 2.1328 4.1562 0.16406 0.32813 0.27344 0.65625 0.4375 0.98438 0.65625 1.2031-0.60156-1.5859-0.10938-0.27344 0.27344 0.82031 0.60156 1.5859 0.92969 2.3516 1.1484 3.2266 2.0781 6.5625 2.6797 9.9531 0.10937 0.49219 0.16406 0.98437 0.27344 1.4766 0.054687 0.21875 0.21875 1.4766 0.054687 0.21875-0.16406-1.3125 0.10938 1.4219 0.16406 1.75-0.16406 1.8047-0.10938 3.6094-0.10938 5.3594 0.054688 5.0312 4.375 9.7891 9.5703 9.5703 5.1406-0.21875 9.625-4.2109 9.5703-9.5703-0.21875-32.867-23.078-62.727-55.289-70.383-32.102-7.6016-66.883 7.8203-81.703 37.625-7.4375 14.984-9.1328 31.227-6.3984 47.578 2.5156 14.93 8.6406 29.695 17.062 42.273 8.2578 12.359 19.195 23.898 32.977 29.914 14.656 6.3984 30.188 5.9062 44.516-1.2031 13.617-6.8359 24.445-18.977 32.32-31.773 8.2578-13.398 13.727-28.492 15.75-44.078 0.4375-3.2812 0.71094-6.6172 0.71094-9.8984 0-5.0312-4.4297-9.7891-9.5703-9.5703s-9.4609 4.1562-9.5156 9.5156z"/>
  <path fill="#00382B" d="m475.78 370.45v50.094h-252.11v-50.094c0-35.602 28.984-64.75 64.641-64.75h15.094l46.539 58.078 46.156-58.078h15.094c35.602 0 64.586 29.148 64.586 64.75z"/>
  <path fill="#00382B" d="m466.1 370.45v43.969 6.2891l9.5703-9.5703h-25.102-60.211-72.57-63c-10.172 0-20.398-0.49219-30.57 0h-0.4375c3.1719 3.1719 6.3984 6.3984 9.5703 9.5703v-48.398-1.8594c0-1.8047 0.054688-3.5547 0.21875-5.3594 0.054688-0.38281 0.27344-3.0625 0.16406-1.6953-0.10938 1.2578 0 0 0.054687-0.21875 0.10938-0.60156 0.21875-1.2031 0.32813-1.8594 0.65625-3.7188 1.6953-7.3828 3.0078-10.938 0.16406-0.4375 1.0938-2.625 0.60156-1.5312-0.54687 1.2031 0.54688-1.1484 0.71094-1.4766 0.82031-1.75 1.75-3.3906 2.7344-5.0859 0.92969-1.5312 1.9141-3.0078 2.9531-4.4844 0.49219-0.65625 1.6406-2.1328 0.4375-0.65625 0.65625-0.82031 1.3672-1.6406 2.0781-2.4609 2.3516-2.6797 4.9219-5.1406 7.6562-7.4375 1.8047-1.5312-1.0391 0.71094 0.875-0.71094 0.65625-0.49219 1.3672-0.98437 2.0234-1.4219 1.5859-1.0938 3.2266-2.0781 4.8672-3.0078 1.4766-0.82031 3.0078-1.5312 4.4844-2.2422 1.5859-0.76563 0 0-0.27344 0.10937 0.4375-0.16406 0.875-0.38281 1.3672-0.54687 0.92969-0.32813 1.8047-0.65625 2.7344-0.98438 2.0781-0.71094 4.2109-1.3125 6.3438-1.75 0.98438-0.21875 1.9141-0.38281 2.8984-0.60156 0.875-0.16406 3.2812-0.38281 1.1484-0.21875 2.9531-0.21875 5.9062-0.4375 8.8594-0.4375h13.781c-2.2422-0.92969-4.4844-1.8594-6.7812-2.7891 13.617 16.953 27.18 33.961 40.797 50.914 1.9141 2.4062 3.8281 4.7578 5.7422 7.1641 3.0078 3.7188 10.555 3.7188 13.508 0 13.453-16.953 26.961-33.906 40.414-50.859 1.9141-2.4062 3.8281-4.8125 5.7422-7.2188-2.2422 0.92969-4.4844 1.8594-6.7812 2.7891h13.617c2.7891 0 5.5234 0.10938 8.2578 0.38281 1.8047 0.16406 0 0-0.32812-0.054687 0.49219 0.054687 0.98438 0.16406 1.4766 0.21875 1.0938 0.16406 2.1875 0.38281 3.2812 0.60156 2.0234 0.4375 4.0469 0.98437 6.0156 1.6406 1.0391 0.32813 2.0781 0.71094 3.0625 1.0938 0.4375 0.16406 0.875 0.38281 1.3672 0.54688 1.2578 0.49219-1.4766-0.76563-0.27344-0.10938 1.8047 0.92969 3.6641 1.75 5.4688 2.7344 1.75 0.98437 3.5 2.0781 5.1406 3.2266 0.38281 0.27344 0.76563 0.54688 1.1484 0.82031 0.27344 0.16406 1.4766 1.1484 0.4375 0.32813-1.0391-0.82031 0.16406 0.16406 0.4375 0.38281 0.4375 0.38281 0.92969 0.76562 1.3672 1.1484 1.5312 1.3125 3.0078 2.7344 4.375 4.1562 0.65625 0.71094 1.3125 1.3672 1.9141 2.0781 0.32812 0.38281 0.60156 0.71094 0.92969 1.0938 0.16406 0.21875 1.6953 2.0781 0.82031 0.98438-0.82031-1.0391 0.16406 0.21875 0.32812 0.4375 0.27344 0.38281 0.54688 0.76562 0.82031 1.1484 0.54687 0.76562 1.0938 1.5859 1.5859 2.4062 1.1484 1.8047 2.2422 3.7188 3.1719 5.6328 0.49219 0.98437 0.92969 1.9688 1.3672 2.9531-1.0938-2.1875 0.4375 1.0938 0.65625 1.75 0.76562 2.1875 1.4766 4.375 2.0234 6.6719 0.27344 1.0938 0.49219 2.1875 0.71094 3.2266 0.10938 0.71094 0.49219 4.375 0.32813 1.8594 0.27344 2.625 0.54687 5.1406 0.54687 7.6562 0.054688 5.0312 4.375 9.7891 9.5703 9.5703 5.1406-0.21875 9.625-4.2109 9.5703-9.5703-0.10938-20.562-8.75-40.742-24.008-54.578-14.328-13.016-32.594-19.469-51.844-19.469h-9.4062c-3.7734 0-7.8203-0.27344-10.664 2.8438-1.75 1.8594-3.2266 4.1016-4.8125 6.0703-7.8203 9.8438-15.641 19.688-23.461 29.531-5.9609 7.4922-11.922 14.984-17.883 22.477h13.508c-7.9297-9.8984-15.859-19.797-23.789-29.695-5.3594-6.6719-10.719-13.344-16.078-20.016-3.6641-4.5938-6.9453-10.773-13.453-11.156-3.3906-0.21875-6.7812 0-10.172 0-4.1562 0-8.3125-0.054688-12.469 0.4375-14.547 1.6953-27.781 7.1641-39.211 16.297-10.664 8.4766-18.539 20.125-23.133 32.922-3.2266 8.8594-4.1562 18.211-4.1562 27.562v45.883 1.2578c0 5.1953 4.375 9.5703 9.5703 9.5703h25.102 60.211 72.57 63c10.172 0 20.398 0.27344 30.57 0h0.4375c5.1953 0 9.5703-4.375 9.5703-9.5703v-43.969-6.2891c0-5.0312-4.375-9.7891-9.5703-9.5703-5.1953 0.10937-9.5703 4.1016-9.5703 9.4609z"/>
  <path fill="#00382B" d="m554.26 223.34c0 26.906-21.82 63.766-48.727 63.766s-48.727-36.805-48.727-63.766c0-26.906 21.82-48.727 48.727-48.727s48.727 21.82 48.727 48.727z"/>
  <path fill="#00382B" d="m544.69 223.34c0 1.2031-0.054688 2.4062-0.10938 3.5547-0.054687 0.54687-0.10938 1.0938-0.10938 1.6406-0.054688 0.60156 0 2.7891 0 0.16406 0 2.4062-0.92969 5.1953-1.4766 7.5469-0.60156 2.3516-1.3125 4.6484-2.1328 6.8906-0.38281 1.1484-0.875 2.2969-1.3125 3.4453-0.92969 2.2969 0.875-1.8047-0.21875 0.4375-0.32812 0.65625-0.60156 1.3672-0.92969 2.0234-2.2422 4.6484-4.9219 9.0234-7.9844 13.234-1.4219 1.9688 1.3125-1.5312-0.27344 0.32812-0.38281 0.4375-0.76562 0.92969-1.1484 1.3672-0.875 0.98438-1.75 1.9688-2.625 2.8984-0.82031 0.82031-1.6406 1.6406-2.5156 2.4609-0.32812 0.32812-0.71094 0.60156-1.0391 0.92969-0.38281 0.32812-2.8438 2.2422-0.71094 0.65625-1.75 1.3125-3.6094 2.5703-5.5781 3.6094-0.49219 0.27344-2.2969 1.5312-2.8984 1.4219 0.38281-0.16406 0.71094-0.32812 1.0938-0.4375-0.38281 0.16406-0.82031 0.32812-1.2031 0.4375-0.60156 0.21875-1.2031 0.4375-1.8047 0.60156-1.0391 0.32812-2.0234 0.54687-3.0625 0.76562-2.2969 0.4375-0.054688-0.21875 0.054687 0.054688 0 0-1.0938 0.10938-1.2578 0.10938-1.1484 0.054687-2.3516 0.054687-3.5 0-0.16406 0-1.5312-0.16406-1.5859-0.10938 1.4766 0.21875 1.6953 0.21875 0.65625 0.054688-0.21875-0.054688-0.4375-0.054688-0.60156-0.10938-1.1484-0.21875-2.2422-0.49219-3.3906-0.82031-0.49219-0.16406-0.98438-0.32812-1.5312-0.49219-0.21875-0.054687-0.38281-0.16406-0.60156-0.21875-0.98438-0.38281-0.82031-0.32812 0.49219 0.21875-0.65625 0.10938-2.3516-1.1484-2.8984-1.4219-1.1484-0.65625-2.2969-1.3125-3.3906-2.0781-0.54688-0.38281-3.3359-2.625-1.3125-0.92969-0.875-0.76562-1.75-1.4766-2.625-2.2422-1.9141-1.75-3.7188-3.6094-5.3594-5.5781-0.49219-0.54687-0.92969-1.0938-1.3672-1.6953 0.21875 0.21875 1.2031 1.6406 0.16406 0.21875-0.71094-0.98438-1.4219-1.9688-2.1328-2.9531-1.5859-2.3516-3.0078-4.7578-4.375-7.2734-0.65625-1.2031-1.2578-2.4062-1.8047-3.6641-0.21875-0.4375-0.38281-0.875-0.60156-1.3672-1.0391-2.2969 0.71094 1.9141-0.21875-0.4375-0.98438-2.5156-1.9141-4.9766-2.6797-7.5469-0.65625-2.2422-1.2578-4.5391-1.6953-6.8906-0.21875-1.0938-0.60156-2.2969-0.54688-3.3906 0 2.625 0.10938 0.49219 0-0.16406-0.054687-0.65625-0.10937-1.3125-0.16406-1.9688-0.16406-2.3516-0.16406-4.7031 0.054688-7.0547 0.054687-0.76562 0.16406-1.4766 0.21875-2.2422-0.27344 2.2969-0.054688 0.54688 0.054687-0.054687 0.27344-1.4766 0.60156-2.8984 0.98438-4.3203 0.32812-1.3125 0.76562-2.5703 1.2031-3.8281 0.16406-0.4375 0.32812-0.875 0.54688-1.3672-0.875 2.2969 0 0.054688 0.16406-0.38281 1.1484-2.4062 2.4609-4.6484 3.9375-6.8359 0.27344-0.38281 0.54688-0.76562 0.82031-1.1484 1.3672-1.9688-1.3125 1.4766 0.27344-0.32812 0.76563-0.875 1.5312-1.8047 2.3516-2.6797s1.6953-1.6953 2.5703-2.4609c0.54687-0.49219 1.0938-0.92969 1.6406-1.4219 1.8047-1.5859-1.6406 1.1484 0.32813-0.27344 2.0781-1.4766 4.1562-2.7891 6.3984-3.9375 0.54688-0.27344 1.0938-0.54687 1.5859-0.82031 0.10938-0.054688 2.2422-0.98438 0.82031-0.38281-1.4219 0.54687 0.82031-0.27344 0.875-0.32813 0.82031-0.27344 1.5859-0.54687 2.4062-0.82031 1.3125-0.38281 2.5703-0.76562 3.8828-1.0391 0.71094-0.16406 4.4297-0.71094 1.8594-0.38281 2.7891-0.32812 5.5781-0.4375 8.3672-0.32812 0.65625 0.054688 1.2578 0.054688 1.9141 0.10938 0.54688 0.054687 3.3359 0.54688 0.82031 0.054687 1.4766 0.27344 2.8984 0.49219 4.375 0.875 1.4219 0.38281 2.8438 0.76563 4.2109 1.2578 0.4375 0.16406 0.92969 0.32812 1.3672 0.49219 0.98438 0.38281 0.875 0.32813-0.27344-0.16406 0.4375 0.21875 0.875 0.38281 1.3125 0.60156 2.5703 1.2031 5.0859 2.6797 7.4375 4.3203 0.38281 0.27344 0.76563 0.54688 1.1484 0.82031-2.0234-1.5312 0.4375 0.4375 0.82031 0.76562 1.0938 0.92969 2.0781 1.9141 3.0625 2.9531 0.98438 1.0391 1.9141 2.1328 2.8438 3.2266-0.21875-0.21875-1.2031-1.6406-0.21875-0.21875 0.54688 0.76562 1.0938 1.5312 1.6406 2.3516 0.76562 1.2031 1.5312 2.4609 2.1875 3.7188 0.21875 0.4375 0.4375 0.875 0.65625 1.2578 0.21875 0.4375 1.4219 3.3906 0.49219 1.0391 0.98438 2.625 1.8594 5.3047 2.4609 8.0391 0.10938 0.60156 0.21875 1.2031 0.32813 1.8047 0.38281 1.9688-0.16406-1.8047 0.10937 0.76562 0.21875 1.75 0.27344 3.3906 0.27344 5.0859 0.054688 5.0312 4.375 9.7891 9.5703 9.5703 5.1406-0.21875 9.625-4.2109 9.5703-9.5703-0.21875-26.469-18.594-50.586-44.57-56.656-25.812-6.0703-53.922 6.3438-65.734 30.406-11.43 23.297-5.5781 50.969 8.4766 71.859 6.6172 9.8438 15.312 19.031 26.359 23.844 11.922 5.1953 24.445 4.8672 36.148-0.82031 12.086-5.8516 21.602-17.117 28.055-28.656 6.7812-12.086 11.211-25.977 11.266-39.922 0.054687-5.0312-4.4297-9.7891-9.5703-9.5703-5.1953 0.16406-9.5156 4.1562-9.5703 9.5156z"/>
  <path fill="#00382B" d="m505.86 398.67h97.344v-38.773c0-27.617-22.367-49.82-49.984-49.82h-11.703l-35.656 43.641z"/>
  <path fill="#00382B" d="m505.75 408.46h32.922 52.5 12.086c5.1953 0 9.5703-4.375 9.5703-9.5703 0-12.961 0.054687-25.977 0-38.938-0.16406-28.656-21.547-54.742-50.258-58.844-4.9766-0.71094-9.8984-0.82031-14.93-0.82031-4.5938 0-9.5703-0.60156-13.07 3.0078-4.1016 4.2656-7.6016 9.2969-11.32 13.836-5.7969 7.1094-11.594 14.164-17.391 21.273-3.5 4.2656-9.4609 9.7891-9.7344 15.531-0.32812 6.6719 0 13.453 0 20.125v23.406 1.3672c0.054688 5.0312 4.4297 9.8438 9.625 9.625s9.5703-4.2109 9.5703-9.5703v-45.172c-0.92969 2.2422-1.8594 4.4844-2.7891 6.7812 10.445-12.797 20.891-25.539 31.336-38.336 1.4766-1.8047 3.0078-3.6641 4.4844-5.4688-2.2422 0.92969-4.4844 1.8594-6.7812 2.7891h9.5703 3.6641c1.5312 0.054687 3.0078 0.16406 4.5391 0.32812-2.5156-0.27344-0.054688 0 0.38281 0.10938 0.875 0.16406 1.6953 0.32812 2.5156 0.54688 1.3125 0.32812 2.625 0.65625 3.8828 1.0938 0.71094 0.21875 1.3672 0.4375 2.0781 0.71094 0.4375 0.16406 2.625 1.1484 0.38281 0.10937 2.625 1.2031 5.1406 2.5156 7.5469 4.1016 0.60156 0.38281 1.1484 0.82031 1.75 1.2031 1.9688 1.3672-1.4766-1.3125 0.32813 0.27344 0.875 0.76562 1.8047 1.5312 2.6797 2.3516 1.0391 0.98438 2.0234 2.0234 2.9531 3.0625 0.49219 0.54688 0.92969 1.0938 1.3672 1.6406 0.65625 0.82031 0.60156 0.71094-0.16406-0.27344 0.27344 0.38281 0.54688 0.76562 0.82031 1.1484 1.5312 2.1328 2.8438 4.4297 4.0469 6.7812 0.32813 0.65625 0.60156 1.3125 0.92969 1.9688-1.0391-2.2422-0.054688-0.054687 0.10938 0.38281 0.49219 1.3672 0.92969 2.7344 1.3672 4.1562 0.38281 1.4219 0.71094 2.8438 0.98438 4.3203 0.10937 0.4375 0.38281 2.9531 0.10937 0.38281 0.054688 0.49219 0.10938 0.98438 0.16406 1.4766 0.16406 1.6953 0.21875 3.3359 0.21875 5.0312v19.305 19.195l9.5703-9.5703h-32.922-52.5-12.086c-5.0312 0-9.7891 4.375-9.5703 9.5703 0.10938 5.1953 4.1016 9.5703 9.4609 9.5703z"/>
  <path fill="#00382B" d="m242.54 223.34c0 26.906-21.82 63.766-48.727 63.766s-48.727-36.805-48.727-63.766c0-26.906 21.82-48.727 48.727-48.727s48.727 21.82 48.727 48.727z"/>
  <path fill="#00382B" d="m232.97 223.34c0 1.2031-0.054688 2.4062-0.10938 3.5547-0.054687 0.54687-0.10938 1.0938-0.10938 1.6406-0.054688 0.60156 0 2.7891 0 0.16406 0 2.4062-0.92969 5.1953-1.4766 7.5469-0.60156 2.3516-1.3125 4.6484-2.1328 6.8906-0.38281 1.1484-0.875 2.2969-1.3125 3.4453-0.92969 2.2969 0.875-1.8047-0.21875 0.4375-0.32812 0.65625-0.60156 1.3672-0.92969 2.0234-2.2422 4.6484-4.9219 9.0234-7.9844 13.234-1.4219 1.9688 1.3125-1.5312-0.27344 0.32812-0.38281 0.4375-0.76562 0.92969-1.1484 1.3672-0.875 0.98438-1.75 1.9688-2.625 2.8984-0.82031 0.82031-1.6406 1.6406-2.5156 2.4609-0.32812 0.32812-0.71094 0.60156-1.0391 0.92969-0.38281 0.32812-2.8438 2.2422-0.71094 0.65625-1.75 1.3125-3.6094 2.5703-5.5781 3.6094-0.49219 0.27344-2.2969 1.5312-2.8984 1.4219 0.38281-0.16406 0.71094-0.32812 1.0938-0.4375-0.38281 0.16406-0.82031 0.32812-1.2031 0.4375-0.60156 0.21875-1.2031 0.4375-1.8047 0.60156-1.0391 0.32812-2.0234 0.54687-3.0625 0.76562-2.2969 0.4375-0.054688-0.21875 0.054687 0.054688 0 0-1.0938 0.10938-1.2578 0.10938-1.1484 0.054687-2.3516 0.054687-3.5 0-0.16406 0-1.5312-0.16406-1.5859-0.10938 1.4766 0.21875 1.6953 0.21875 0.65625 0.054688-0.21875-0.054688-0.4375-0.054688-0.60156-0.10938-1.1484-0.21875-2.2422-0.49219-3.3906-0.82031-0.49219-0.16406-0.98438-0.32812-1.5312-0.49219-0.21875-0.054687-0.38281-0.16406-0.60156-0.21875-0.98438-0.38281-0.82031-0.32812 0.49219 0.21875-0.65625 0.10938-2.3516-1.1484-2.8984-1.4219-1.1484-0.65625-2.2969-1.3125-3.3906-2.0781-0.54688-0.38281-3.3359-2.625-1.3125-0.92969-0.875-0.76562-1.75-1.4766-2.625-2.2422-1.9141-1.75-3.7188-3.6094-5.3594-5.5781-0.49219-0.54687-0.92969-1.0938-1.3672-1.6953 0.21875 0.21875 1.2031 1.6406 0.16406 0.21875-0.71094-0.98438-1.4219-1.9688-2.1328-2.9531-1.5859-2.3516-3.0078-4.7578-4.375-7.2734-0.65625-1.2031-1.2578-2.4062-1.8047-3.6641-0.21875-0.4375-0.38281-0.875-0.60156-1.3672-1.0391-2.2969 0.71094 1.9141-0.21875-0.4375-0.98438-2.5156-1.9141-4.9766-2.6797-7.5469-0.65625-2.2422-1.2578-4.5391-1.6953-6.8906-0.21875-1.0938-0.60156-2.2969-0.54688-3.3906 0 2.625 0.10938 0.49219 0-0.16406-0.054687-0.65625-0.10937-1.3125-0.16406-1.9688-0.16406-2.3516-0.16406-4.7031 0.054688-7.0547 0.054687-0.76562 0.16406-1.4766 0.21875-2.2422-0.27344 2.2969-0.054688 0.54688 0.054687-0.054687 0.27344-1.4766 0.60156-2.8984 0.98438-4.3203 0.32812-1.3125 0.76562-2.5703 1.2031-3.8281 0.16406-0.4375 0.32812-0.875 0.54688-1.3672-0.875 2.2969 0 0.054688 0.16406-0.38281 1.1484-2.4062 2.4609-4.6484 3.9375-6.8359 0.27344-0.38281 0.54688-0.76562 0.82031-1.1484 1.3672-1.9688-1.3125 1.4766 0.27344-0.32812 0.76563-0.875 1.5312-1.8047 2.3516-2.6797s1.6953-1.6953 2.5703-2.4609c0.54687-0.49219 1.0938-0.92969 1.6406-1.4219 1.8047-1.5859-1.6406 1.1484 0.32813-0.27344 2.0781-1.4766 4.1562-2.7891 6.3984-3.9375 0.54688-0.27344 1.0938-0.54687 1.5859-0.82031 0.10938-0.054688 2.2422-0.98438 0.82031-0.38281-1.4219 0.54687 0.82031-0.27344 0.875-0.32813 0.82031-0.27344 1.5859-0.54687 2.4062-0.82031 1.3125-0.38281 2.5703-0.76562 3.8828-1.0391 0.71094-0.16406 4.4297-0.71094 1.8594-0.38281 2.7891-0.32812 5.5781-0.4375 8.3672-0.32812 0.65625 0.054688 1.2578 0.054688 1.9141 0.10938 0.54688 0.054687 3.3359 0.54688 0.82031 0.054687 1.4766 0.27344 2.8984 0.49219 4.375 0.875 1.4219 0.38281 2.8438 0.76563 4.2109 1.2578 0.4375 0.16406 0.92969 0.32812 1.3672 0.49219 0.98438 0.38281 0.875 0.32813-0.27344-0.16406 0.4375 0.21875 0.875 0.38281 1.3125 0.60156 2.5703 1.2031 5.0859 2.6797 7.4375 4.3203 0.38281 0.27344 0.76563 0.54688 1.1484 0.82031-2.0234-1.5312 0.4375 0.4375 0.82031 0.76562 1.0938 0.92969 2.0781 1.9141 3.0625 2.9531 0.98438 1.0391 1.9141 2.1328 2.8438 3.2266-0.21875-0.21875-1.2031-1.6406-0.21875-0.21875 0.54688 0.76562 1.0938 1.5312 1.6406 2.3516 0.76562 1.2031 1.5312 2.4609 2.1875 3.7188 0.21875 0.4375 0.4375 0.875 0.65625 1.2578 0.21875 0.4375 1.4219 3.3906 0.49219 1.0391 0.98438 2.625 1.8594 5.3047 2.4609 8.0391 0.10938 0.60156 0.21875 1.2031 0.32813 1.8047 0.38281 1.9688-0.16406-1.8047 0.10937 0.76562 0.21875 1.75 0.27344 3.3906 0.27344 5.0859 0.054688 5.0312 4.375 9.7891 9.5703 9.5703 5.1406-0.21875 9.625-4.2109 9.5703-9.5703-0.21875-26.469-18.594-50.586-44.57-56.656-25.812-6.0703-53.922 6.3438-65.734 30.406-11.43 23.297-5.5781 50.969 8.4766 71.859 6.6172 9.8438 15.312 19.031 26.359 23.844 11.922 5.1953 24.445 4.8672 36.148-0.82031 12.086-5.8516 21.602-17.117 28.055-28.656 6.7812-12.086 11.211-25.977 11.266-39.922 0.054687-5.0312-4.4297-9.7891-9.5703-9.5703-5.1953 0.16406-9.5156 4.1562-9.5703 9.5156z"/>
  <path fill="#00382B" d="m194.14 353.72-36.203-43.641h-11.703c-27.617 0-49.984 22.203-49.984 49.82v38.773h97.891z"/>
  <path fill="#00382B" d="m200.76 346.94c-6.3438-7.7109-12.742-15.422-19.086-23.188-4.1016-5.0312-8.2578-10.008-12.359-15.039-3.2812-3.9922-5.6875-8.2031-11.539-8.4219-6.4531-0.27344-13.234-0.21875-19.633 0.60156-11.32 1.5312-21.602 6.2891-30.406 13.508-14.383 11.758-21.164 29.586-21.164 47.852v36.586c0 5.1953 4.375 9.5703 9.5703 9.5703h33.086 52.664 12.031c5.1953 0 9.5703-4.375 9.5703-9.5703v-45.172c0-5.0312-4.375-9.7891-9.5703-9.5703s-9.5703 4.2109-9.5703 9.5703v45.172l9.5703-9.5703h-33.086-52.664-12.031l9.5703 9.5703v-37.625-1.3672c0-1.2578 0.054687-2.5156 0.16406-3.8281 0.054688-0.49219 0.10938-0.98438 0.10938-1.4766 0.10938-1.0938 0.10938-0.98437-0.054687 0.32813 0.054687-0.49219 0.16406-0.98438 0.21875-1.4766 0.49219-2.625 1.1484-5.25 2.0781-7.7656 0.21875-0.65625 0.49219-1.3672 0.76563-2.0234-0.875 2.2969 0 0.054688 0.21875-0.32812 0.71094-1.5312 1.5312-3.0078 2.4062-4.4297 0.60156-1.0391 1.2578-2.0234 1.9688-3.0078 0.27344-0.38281 1.75-2.2422 0.21875-0.32813 0.4375-0.54687 0.875-1.0938 1.3672-1.6406 1.8594-2.1875 3.9375-4.0469 6.125-5.9609 1.8047-1.5859-1.6406 1.0938 0.32812-0.27344 0.60156-0.38281 1.1484-0.82031 1.75-1.2031 1.0938-0.71094 2.1875-1.4219 3.3359-2.0234 1.1484-0.65625 2.3516-1.2031 3.5-1.8047 2.1875-1.0938-1.9141 0.65625 0.38281-0.16406 0.92969-0.32812 1.8047-0.65625 2.7344-0.98438 1.3672-0.4375 2.7891-0.82031 4.2109-1.1484 0.71094-0.16406 1.4219-0.32813 2.1875-0.4375 0.49219-0.10938 0.98438-0.16406 1.4766-0.21875-1.3125 0.16406-1.4219 0.16406-0.32812 0.054687 2.1328-0.16406 4.2109-0.27344 6.3438-0.27344h10.664c-2.2422-0.92969-4.4844-1.8594-6.7812-2.7891 10.555 12.797 21.055 25.539 31.609 38.336 1.5312 1.8047 3.0078 3.6641 4.5391 5.4688 3.1719 3.8828 10.281 3.5547 13.508 0 3.8281-4.1016 3.4453-9.4062 0-13.508z"/>
  <use x="70" y="568.203125" xlink:href="#v"/>
  <use x="72.007812" y="568.203125" xlink:href="#f"/>
  <use x="73.355469" y="568.203125" xlink:href="#a"/>
  <use x="75.210937" y="568.203125" xlink:href="#e"/>
  <use x="77.054688" y="568.203125" xlink:href="#d"/>
  <use x="78.363281" y="568.203125" xlink:href="#a"/>
  <use x="80.214844" y="568.203125" xlink:href="#k"/>
  <use x="83.125" y="568.203125" xlink:href="#j"/>
  <use x="85.082031" y="568.203125" xlink:href="#i"/>
  <use x="87.816406" y="568.203125" xlink:href="#c"/>
  <use x="89.445312" y="568.203125" xlink:href="#b"/>
  <use x="91.390625" y="568.203125" xlink:href="#e"/>
  <use x="93.238281" y="568.203125" xlink:href="#c"/>
  <use x="94.863281" y="568.203125" xlink:href="#b"/>
  <use x="96.8125" y="568.203125" xlink:href="#e"/>
  <use x="98.65625" y="568.203125" xlink:href="#h"/>
  <use x="100.601562" y="568.203125" xlink:href="#u"/>
  <use x="103.375" y="568.203125" xlink:href="#c"/>
  <use x="105" y="568.203125" xlink:href="#t"/>
  <use x="105.9375" y="568.203125" xlink:href="#h"/>
  <use x="107.882812" y="568.203125" xlink:href="#s"/>
  <use x="109.84375" y="568.203125" xlink:href="#b"/>
  <use x="70" y="570.9375" xlink:href="#r"/>
  <use x="71.191406" y="570.9375" xlink:href="#f"/>
  <use x="72.539062" y="570.9375" xlink:href="#g"/>
  <use x="74.417969" y="570.9375" xlink:href="#q"/>
  <use x="78.21875" y="570.9375" xlink:href="#d"/>
  <use x="79.523438" y="570.9375" xlink:href="#b"/>
  <use x="81.472656" y="570.9375" xlink:href="#a"/>
  <use x="84.277344" y="570.9375" xlink:href="#p"/>
  <use x="86.566406" y="570.9375" xlink:href="#g"/>
  <use x="88.445312" y="570.9375" xlink:href="#o"/>
  <use x="90.390625" y="570.9375" xlink:href="#h"/>
  <use x="93.289062" y="570.9375" xlink:href="#n"/>
  <use x="95.292969" y="570.9375" xlink:href="#f"/>
  <use x="96.644531" y="570.9375" xlink:href="#g"/>
  <use x="98.519531" y="570.9375" xlink:href="#m"/>
  <use x="99.457031" y="570.9375" xlink:href="#a"/>
  <use x="101.3125" y="570.9375" xlink:href="#l"/>
  <use x="102.933594" y="570.9375" xlink:href="#d"/>
 </g>
</svg>
