<svg width="89" height="15" viewBox="0 0 89 15" fill="none" xmlns="http://www.w3.org/2000/svg">
<path d="M7.462 14.312C6.23133 14.312 5.122 14.0433 4.134 13.506C3.146 12.9687 2.366 12.1973 1.794 11.192C1.222 10.1867 0.936 8.97333 0.936 7.552C0.936 6.148 1.222 4.94333 1.794 3.938C2.38333 2.93267 3.146 2.16133 4.082 1.624C5.018 1.06933 5.99733 0.792 7.02 0.792C8.25067 0.792 9.26467 1.06933 10.062 1.624C10.8767 2.16133 11.4833 2.898 11.882 3.834C12.298 4.75267 12.506 5.80133 12.506 6.98C12.506 7.30933 12.4887 7.63867 12.454 7.968C12.4193 8.28 12.3847 8.514 12.35 8.67H4.628C4.80133 9.606 5.19133 10.2993 5.798 10.75C6.40467 11.1833 7.13267 11.4 7.982 11.4C8.90067 11.4 9.828 11.114 10.764 10.542L12.038 12.856C11.3793 13.3067 10.6427 13.662 9.828 13.922C9.01333 14.182 8.22467 14.312 7.462 14.312ZM4.602 6.148H9.256C9.256 5.43733 9.08267 4.85667 8.736 4.406C8.40667 3.938 7.86067 3.704 7.098 3.704C6.50867 3.704 5.98 3.912 5.512 4.328C5.044 4.72667 4.74067 5.33333 4.602 6.148ZM18.1177 14.312C16.9391 14.312 16.0031 13.9393 15.3097 13.194C14.6164 12.4313 14.2697 11.504 14.2697 10.412C14.2697 9.06 14.8417 8.00267 15.9857 7.24C17.1297 6.47733 18.9757 5.966 21.5237 5.706C21.4891 5.134 21.3157 4.68333 21.0037 4.354C20.7091 4.00733 20.2064 3.834 19.4957 3.834C18.9584 3.834 18.4124 3.938 17.8577 4.146C17.3031 4.354 16.7137 4.64 16.0897 5.004L14.7117 2.482C15.5264 1.97933 16.3931 1.572 17.3117 1.26C18.2477 0.948 19.2184 0.792 20.2237 0.792C21.8704 0.792 23.1357 1.26867 24.0197 2.222C24.9037 3.17533 25.3457 4.64 25.3457 6.616V14H22.2257L21.9657 12.674H21.8617C21.3244 13.1593 20.7437 13.558 20.1197 13.87C19.5131 14.1647 18.8457 14.312 18.1177 14.312ZM19.4177 11.348C19.8511 11.348 20.2237 11.2527 20.5357 11.062C20.8651 10.854 21.1944 10.5853 21.5237 10.256V7.994C20.1717 8.16733 19.2357 8.44467 18.7157 8.826C18.1957 9.19 17.9357 9.62333 17.9357 10.126C17.9357 10.542 18.0657 10.854 18.3257 11.062C18.6031 11.2527 18.9671 11.348 19.4177 11.348ZM34.1947 14.312C32.9987 14.312 31.9153 14.052 30.9447 13.532C29.9913 12.9947 29.2287 12.2233 28.6567 11.218C28.102 10.1953 27.8247 8.97333 27.8247 7.552C27.8247 6.11333 28.1367 4.89133 28.7607 3.886C29.3847 2.88067 30.208 2.118 31.2307 1.598C32.2533 1.06067 33.354 0.792 34.5327 0.792C35.33 0.792 36.032 0.921999 36.6387 1.182C37.2627 1.442 37.8173 1.77133 38.3027 2.17L36.5087 4.64C35.902 4.13733 35.3213 3.886 34.7667 3.886C33.848 3.886 33.1113 4.21533 32.5567 4.874C32.0193 5.53267 31.7507 6.42533 31.7507 7.552C31.7507 8.66133 32.0193 9.554 32.5567 10.23C33.1113 10.8887 33.8047 11.218 34.6367 11.218C35.0527 11.218 35.46 11.1313 35.8587 10.958C36.2573 10.7673 36.6213 10.542 36.9507 10.282L38.4587 12.778C37.8173 13.3327 37.124 13.7313 36.3787 13.974C35.6333 14.1993 34.9053 14.312 34.1947 14.312ZM42.9254 14.312C42.2667 14.312 41.7121 14.0867 41.2614 13.636C40.8281 13.168 40.6114 12.596 40.6114 11.92C40.6114 11.2267 40.8281 10.6547 41.2614 10.204C41.7121 9.736 42.2667 9.502 42.9254 9.502C43.5841 9.502 44.1301 9.736 44.5634 10.204C45.0141 10.6547 45.2394 11.2267 45.2394 11.92C45.2394 12.596 45.0141 13.168 44.5634 13.636C44.1301 14.0867 43.5841 14.312 42.9254 14.312ZM53.7944 14.312C52.7024 14.312 51.6711 14.052 50.7004 13.532C49.7471 12.9947 48.9757 12.2233 48.3864 11.218C47.7971 10.1953 47.5024 8.97333 47.5024 7.552C47.5024 6.11333 47.7971 4.89133 48.3864 3.886C48.9757 2.88067 49.7471 2.118 50.7004 1.598C51.6711 1.06067 52.7024 0.792 53.7944 0.792C54.8864 0.792 55.9091 1.06067 56.8624 1.598C57.8157 2.118 58.5871 2.88067 59.1764 3.886C59.7657 4.89133 60.0604 6.11333 60.0604 7.552C60.0604 8.97333 59.7657 10.1953 59.1764 11.218C58.5871 12.2233 57.8157 12.9947 56.8624 13.532C55.9091 14.052 54.8864 14.312 53.7944 14.312ZM53.7944 11.218C54.5744 11.218 55.1637 10.8887 55.5624 10.23C55.9611 9.554 56.1604 8.66133 56.1604 7.552C56.1604 6.42533 55.9611 5.53267 55.5624 4.874C55.1637 4.21533 54.5744 3.886 53.7944 3.886C52.9971 3.886 52.3991 4.21533 52.0004 4.874C51.6191 5.53267 51.4284 6.42533 51.4284 7.552C51.4284 8.66133 51.6191 9.554 52.0004 10.23C52.3991 10.8887 52.9971 11.218 53.7944 11.218ZM62.6783 14V1.104H65.7983L66.0583 2.742H66.1623C66.7169 2.222 67.3236 1.77133 67.9823 1.39C68.6583 0.991333 69.4296 0.792 70.2963 0.792C71.7003 0.792 72.7143 1.26 73.3383 2.196C73.9796 3.11467 74.3003 4.38 74.3003 5.992V14H70.4783V6.486C70.4783 5.55 70.3483 4.90867 70.0883 4.562C69.8456 4.21533 69.4469 4.042 68.8923 4.042C68.4069 4.042 67.9909 4.15467 67.6443 4.38C67.2976 4.588 66.9163 4.89133 66.5003 5.29V14H62.6783ZM83.3292 14.312C82.0985 14.312 80.9892 14.0433 80.0012 13.506C79.0132 12.9687 78.2332 12.1973 77.6612 11.192C77.0892 10.1867 76.8032 8.97333 76.8032 7.552C76.8032 6.148 77.0892 4.94333 77.6612 3.938C78.2505 2.93267 79.0132 2.16133 79.9492 1.624C80.8852 1.06933 81.8645 0.792 82.8872 0.792C84.1179 0.792 85.1319 1.06933 85.9292 1.624C86.7439 2.16133 87.3505 2.898 87.7492 3.834C88.1652 4.75267 88.3732 5.80133 88.3732 6.98C88.3732 7.30933 88.3559 7.63867 88.3212 7.968C88.2865 8.28 88.2519 8.514 88.2172 8.67H80.4952C80.6685 9.606 81.0585 10.2993 81.6652 10.75C82.2719 11.1833 82.9999 11.4 83.8492 11.4C84.7679 11.4 85.6952 11.114 86.6312 10.542L87.9052 12.856C87.2465 13.3067 86.5099 13.662 85.6952 13.922C84.8805 14.182 84.0919 14.312 83.3292 14.312ZM80.4692 6.148H85.1232C85.1232 5.43733 84.9499 4.85667 84.6032 4.406C84.2739 3.938 83.7279 3.704 82.9652 3.704C82.3759 3.704 81.8472 3.912 81.3792 4.328C80.9112 4.72667 80.6079 5.33333 80.4692 6.148Z" fill="#00382B"/>
</svg>